<svg version="1.1" id="Layer_1" xmlns="http://www.w3.org/2000/svg" xmlns:xlink="http://www.w3.org/1999/xlink" x="0px" y="0px"
	 width="100%" viewBox="0 0 496 496" enable-background="new 0 0 496 496" xml:space="preserve">
<path fill="#000000" opacity="1.000000" stroke="none" 
	d="
M369.788452,255.720749 
	C370.289246,257.502960 370.831543,257.634766 372.326355,256.872406 
	C377.760071,254.101242 382.069092,254.987122 384.419128,259.055115 
	C386.446686,262.564911 385.424622,267.355804 382.126465,269.802155 
	C378.342102,272.609161 373.955566,271.585144 370.053101,266.987885 
	C369.839020,266.735687 369.596741,266.507446 369.141602,266.031982 
	C362.446533,272.072205 354.535431,272.260651 346.279816,270.409882 
	C344.058563,269.911896 342.023102,270.609467 339.898071,271.017334 
	C329.648376,272.984619 323.779663,268.150787 323.652740,257.743500 
	C323.630402,255.911469 323.884338,254.039505 323.588104,252.256180 
	C323.165985,249.714691 325.262665,245.218674 321.533722,245.082504 
	C316.724335,244.906860 310.717804,241.969833 307.000854,248.104477 
	C305.301544,250.909119 305.004761,253.665558 306.850433,256.532166 
	C308.859558,259.652649 311.824402,261.548676 315.289490,260.380096 
	C319.661133,258.905853 320.790497,261.460297 322.374420,264.384918 
	C323.980591,267.350647 323.291901,268.982452 320.173859,269.987610 
	C312.149475,272.574402 304.744019,271.807251 298.178467,266.148346 
	C297.302582,265.393433 296.458527,264.601624 295.139435,263.411682 
	C290.290771,268.631348 284.400787,271.408020 277.166016,271.397827 
	C269.888000,271.387543 264.348389,268.425812 260.124908,262.604309 
	C259.784302,262.976044 259.422485,263.184540 259.411957,263.409454 
	C259.109467,269.871063 254.943359,272.436096 248.617722,270.175415 
	C246.433624,269.394897 246.713531,267.678711 246.688812,266.089447 
	C246.616272,261.426514 246.749496,256.758972 246.611588,252.098892 
	C246.457367,246.887909 244.087082,244.094696 240.227463,244.234100 
	C236.273621,244.376907 234.188141,247.051407 234.084991,252.331207 
	C234.000412,256.660492 233.893600,261.000031 234.095169,265.321045 
	C234.279739,269.277679 232.606506,270.812164 228.770920,270.392792 
	C227.453506,270.248749 226.104843,270.294678 224.776520,270.366272 
	C221.963043,270.517883 220.929153,269.079529 220.925644,266.436188 
	C220.913269,257.109100 220.875916,247.781754 220.775589,238.455292 
	C220.745621,235.669220 222.030228,234.380112 224.719116,234.704910 
	C227.898926,235.089035 231.386063,233.381454 234.241028,236.108292 
	C235.057999,236.888580 235.746872,235.990845 236.468063,235.710526 
	C246.625946,231.762268 252.854355,233.603867 259.456512,242.748520 
	C264.069550,237.456223 269.353455,233.553986 276.823242,233.616119 
	C284.002411,233.675858 289.720093,236.350403 293.709198,241.928528 
	C295.334686,242.213394 295.870941,241.202271 296.515015,240.515793 
	C302.281403,234.369568 309.286072,232.521179 317.442993,234.186386 
	C322.842804,235.288757 323.583282,234.599548 323.645355,229.169434 
	C323.726288,222.090103 327.399567,219.588623 334.296417,221.769775 
	C335.947815,222.292068 336.256317,223.380432 336.290527,224.774094 
	C336.343658,226.938461 336.399567,229.105316 336.352478,231.268906 
	C336.303040,233.540451 337.269165,234.822372 339.598907,234.602402 
	C341.940094,234.381332 343.691864,235.386551 345.116364,237.163055 
	C351.555054,233.060745 358.217773,232.858261 365.059875,234.754410 
	C367.013367,235.295792 370.068512,235.612457 368.592163,238.730789 
	C367.447144,241.149353 367.572205,245.795074 362.536896,244.030930 
	C360.009369,243.145401 357.502777,242.687424 353.798798,244.450775 
	C359.336884,248.724686 367.372955,248.335007 369.788452,255.720749 
M344.228760,258.643219 
	C346.963104,258.197083 348.748352,260.444183 351.117340,261.087982 
	C353.382721,261.703613 355.289612,261.962860 356.294983,259.328064 
	C355.111572,257.146149 352.996368,256.920715 351.218475,256.160065 
	C347.970428,254.770432 345.094147,252.991043 343.019928,249.961243 
	C341.712616,248.051605 342.606476,243.666183 338.482147,244.766373 
	C334.538696,245.818329 337.037964,249.539169 336.361847,251.987976 
	C336.276733,252.296127 336.347839,252.648056 336.350372,252.979691 
	C336.399841,259.465210 336.804840,259.796295 344.228760,258.643219 
M274.204956,254.403107 
	C270.153625,254.893921 270.807220,256.961578 272.911224,258.967255 
	C275.316986,261.260529 278.932281,261.812927 281.284027,260.166168 
	C285.407623,257.278656 289.017731,257.575378 293.040894,260.337494 
	C292.857025,255.508438 290.670563,253.976959 286.548126,254.285934 
	C282.737793,254.571548 278.890961,254.370422 274.204956,254.403107 
M272.119812,245.098953 
	C275.129822,248.949173 278.636169,246.247574 282.317657,246.398773 
	C279.245758,241.529572 277.069977,241.226028 272.119812,245.098953 
z"/>
<path fill="#000000" opacity="1.000000" stroke="none" 
	d="
M187.982620,234.655640 
	C193.339462,234.580139 198.004501,235.387894 203.188538,234.072586 
	C213.232834,231.524139 220.295609,238.203079 220.312149,248.537308 
	C220.321732,254.531021 220.219437,260.525726 220.303711,266.518097 
	C220.342514,269.276031 219.196472,270.237274 216.468231,270.404327 
	C208.002213,270.922760 207.688492,270.728729 207.674561,262.371002 
	C207.667908,258.375244 207.758896,254.375046 207.600052,250.385040 
	C207.456528,246.780273 205.739975,244.242218 201.822647,244.254257 
	C197.932419,244.266205 195.500259,246.342804 195.351379,250.343613 
	C195.171921,255.165863 195.114609,260.004608 195.301025,264.824738 
	C195.452896,268.751801 194.245346,270.782684 189.943085,270.418427 
	C186.143768,270.096771 181.333435,271.628571 181.893631,264.970673 
	C181.948151,264.322815 181.812134,263.658905 181.715805,262.329773 
	C170.684128,273.794220 158.772598,273.990875 146.140488,266.168091 
	C143.719009,270.639587 135.386887,272.880981 128.437347,270.684479 
	C120.701927,268.239502 115.333061,263.254486 114.066010,255.028961 
	C112.956688,247.827347 115.987938,242.026413 121.725639,237.673477 
	C128.346786,232.650284 135.548737,232.651855 143.023666,235.413635 
	C145.637192,236.379257 145.991287,238.194504 143.861633,241.440125 
	C157.618515,230.522842 168.037186,231.005127 181.606934,242.436340 
	C182.248352,238.750122 181.045441,233.564529 187.982620,234.655640 
M141.234207,257.923889 
	C141.138962,254.794388 140.261124,251.665237 141.286987,248.535706 
	C141.997742,246.367401 140.681000,245.627014 138.910339,244.999847 
	C134.687347,243.504074 131.326950,244.700760 128.912781,248.274033 
	C126.507423,251.834244 127.244331,255.377747 130.170303,258.208160 
	C133.484070,261.413696 137.214371,261.623505 141.234207,257.923889 
M169.561188,250.187943 
	C165.980911,244.095840 158.704498,243.303421 155.656601,248.701462 
	C153.905319,251.803116 154.270813,254.833679 156.487213,257.531860 
	C158.827835,260.381256 162.081116,260.559906 165.174576,259.435364 
	C168.981033,258.051636 170.235489,254.883301 169.561188,250.187943 
z"/>
</svg>